<svg xmlns="http://www.w3.org/2000/svg" viewBox="0 0 94.01 42.55"><defs><style>.cls-1{font-size:25px;font-family:Roboto-Regular, Roboto;letter-spacing:-0.02em;}.cls-1,.cls-7{fill:#fff;}.cls-2{letter-spacing:0em;}.cls-3{letter-spacing:-0.01em;}.cls-4{letter-spacing:-0.04em;}.cls-5{letter-spacing:-0.06em;}.cls-6{letter-spacing:0em;}</style></defs><title>Asset 1</title><g id="Layer_2" data-name="Layer 2"><g id="Layer_2-2" data-name="Layer 2"><text class="cls-1" transform="translate(13.1 35.77)">W<tspan class="cls-2" x="21.73" y="0">at</tspan><tspan class="cls-3" x="43.39" y="0">t</tspan><tspan class="cls-4" x="51.26" y="0">o</tspan><tspan class="cls-5" x="64.5" y="0">’</tspan><tspan class="cls-6" x="68.07" y="0">s</tspan></text><path class="cls-7" d="M23.21,7.57c-1.57,1.49-3.12,2.94-4.64,4.42a1.94,1.94,0,0,0-.41.82,5.2,5.2,0,0,1-6.5,3.76,2.2,2.2,0,0,0-1.05,0c-2,.6-4,1.24-6,1.89a3.32,3.32,0,0,0,2.31,2.75,14.25,14.25,0,0,1,4,2.06c-3-.12-6-.52-8-2.88-4.25-5-3-8.51-1.17-12.52l.4,0A32.26,32.26,0,0,1,1.74,12,3.38,3.38,0,0,0,3,15.68c1.74-2.07,4.42-3.25,5.43-6.08a5,5,0,0,1,5.22-3.08,7.28,7.28,0,0,0,3.68-.41c1.41-.47,2.82-.91,4.22-1.35a3,3,0,0,0-2.4-2.81A19.26,19.26,0,0,1,15.37.13c1.84-.65,7,1.26,8.06,2.64,4.07,5.1,3,8.73,1.07,12.54l-.37,0a35.86,35.86,0,0,1,.39-4.14A3.18,3.18,0,0,0,23.21,7.57ZM10.74,13.16a2.87,2.87,0,1,0,4.65-3.34,2.78,2.78,0,0,0-4-.45,2.61,2.61,0,0,0-.72,3.6"/></g></g></svg>