<svg xmlns="http://www.w3.org/2000/svg" viewBox="0 0 23.57 20.69"><defs><style>.cls-1{fill:#929fba;}</style></defs><title>Starflighter</title><g id="Layer_2" data-name="Layer 2"><g id="Layer_1-2" data-name="Layer 1"><path class="cls-1" d="M9.18,20.12H14a10,10,0,0,0,1.56,0c.66-.1,1.16-.36,1.09-1.23-.08-1.15,0-2.32,0-3.48,0-.4-.41-.77-.49-1.18A18.78,18.78,0,0,1,16,12.09c-1.71-.13-3.79-.29-5.88-.43-2.55-.17-5.11-.28-7.66-.47A7.14,7.14,0,0,1,0,10.5a4.73,4.73,0,0,1,3.24-1l12.08-.83a7.56,7.56,0,0,0,1-.21c-.52-.79-1-1.55.12-2.2.15-.08.15-.5.16-.77,0-1.12-.08-2.25,0-3.36C16.76.92,16.14.57,15.06.58L9.67.62A.68.68,0,0,1,9.13.34c3.8.18,7.57-.89,11.41.06L19.7.76l1.63,6a4.07,4.07,0,0,1,1.19-.06,4.08,4.08,0,0,1,1,.6A3.62,3.62,0,0,1,22.5,8a7,7,0,0,1-1.62-.09,3.24,3.24,0,0,1,0,5,8.57,8.57,0,0,1,1.74-.1c.34.05.64.39,1,.59-.3.23-.57.57-.9.65a4.75,4.75,0,0,1-1.34-.07l-1.55,6,.86.29C16.81,21.36,13,20,9.2,20.64Zm4-10.43c-.92,0-1.7,0-2.47.14-.21,0-.47.36-.53.59s.27.5.45.52c.84.1,1.68.12,2.56.17Z"/></g></g></svg>